<svg width="17" height="32" viewBox="0 0 17 32" fill="none" xmlns="http://www.w3.org/2000/svg">
<path d="M15.399 30.5106V6.86631C15.3989 6.61293 15.3191 6.36598 15.171 6.1604C15.0229 5.95482 14.8139 5.80101 14.5736 5.72071L2.50606 1.6982C2.32461 1.63739 2.13128 1.62067 1.94208 1.64942C1.75289 1.67816 1.57325 1.75155 1.41805 1.86351C1.26285 1.97547 1.13654 2.12278 1.04958 2.29325C0.962622 2.46372 0.917507 2.65244 0.917972 2.84381V30.5106" stroke="#A0A3BD" stroke-width="1.6" stroke-linecap="round" stroke-linejoin="round"/>
<path d="M10.5703 22.8906V24.0974" stroke="#A0A3BD" stroke-width="1.6" stroke-linecap="round" stroke-linejoin="round"/>
<path d="M10.5703 16.8564V18.0632" stroke="#A0A3BD" stroke-width="1.6" stroke-linecap="round" stroke-linejoin="round"/>
<path d="M10.5703 10.8232V12.03" stroke="#A0A3BD" stroke-width="1.6" stroke-linecap="round" stroke-linejoin="round"/>
<path d="M5.74609 22.8906V24.0974" stroke="#A0A3BD" stroke-width="1.6" stroke-linecap="round" stroke-linejoin="round"/>
<path d="M5.74609 16.8564V18.0632" stroke="#A0A3BD" stroke-width="1.6" stroke-linecap="round" stroke-linejoin="round"/>
<path d="M5.74609 10.8232V12.03" stroke="#A0A3BD" stroke-width="1.6" stroke-linecap="round" stroke-linejoin="round"/>
</svg>
