<svg width="17" height="29" viewBox="0 0 17 29" fill="none" xmlns="http://www.w3.org/2000/svg">
<path d="M13.2434 1.51074H3.06946C1.82082 1.51074 0.808594 2.52297 0.808594 3.77161V25.2499C0.808594 26.4985 1.82082 27.5107 3.06946 27.5107H13.2434C14.492 27.5107 15.5042 26.4985 15.5042 25.2499V3.77161C15.5042 2.52297 14.492 1.51074 13.2434 1.51074Z" stroke="#A0A3BD" stroke-width="1.6" stroke-linecap="round" stroke-linejoin="round"/>
<path d="M11.8593 1.51074V2.99197C11.8593 3.38482 11.7032 3.76157 11.4254 4.03936C11.1476 4.31714 10.7709 4.4732 10.378 4.4732H5.93435C5.54151 4.4732 5.16475 4.31714 4.88697 4.03936C4.60918 3.76157 4.45312 3.38482 4.45312 2.99197V1.51074" stroke="#A0A3BD" stroke-width="1.6" stroke-linecap="round" stroke-linejoin="round"/>
</svg>
